# xmcd
#
# Track frame offsets: 
#        150
#        21070
#        35722
#        48602
#        61840
#        73227
#        91280
#        109027
#        122857
#        135812
#        148652
#        162207
#        176377
#        191345
#        204122
#        216085
#        229097
#        239560
#        248765
#
# Disc length: 3446 seconds
#
# Revision: 3
# Processed by: cddbd v1.5.2PL0 Copyright (c) Steve Scherf et al.
# Submitted via: ExactAudioCopyFreeDBPlugin 1.0
#
DISCID=080d7413
DTITLE=Frank Sinatra - The Legend [DIsc 2]
DYEAR=1997
DGENRE=Jazz
TTITLE0=My Way
TTITLE1=The Girl From Ipanema
TTITLE2=For Once In My Life
TTITLE3=Summerwind
TTITLE4=What Now My Love
TTITLE5=Night And Day
TTITLE6=Yesterday
TTITLE7=Three Coins In The Fountain
TTITLE8=All The Way
TTITLE9=Young At Heart
TTITLE10=In The Wee Small Hours Of The Morning
TTITLE11=My Kind Of Town
TTITLE12=Come Fly With Me
TTITLE13=South Of The Border
TTITLE14=Love And Marriage
TTITLE15=Witchcraft
TTITLE16=One Hundred Years From Today
TTITLE17=I Wish I Didn't Love You So
TTITLE18=Lilli Bolero
EXTD=YEAR: 1997
EXTT0=
EXTT1=
EXTT2=
EXTT3=
EXTT4=
EXTT5=
EXTT6=
EXTT7=
EXTT8=
EXTT9=
EXTT10=
EXTT11=
EXTT12=
EXTT13=
EXTT14=
EXTT15=
EXTT16=
EXTT17=
EXTT18=
PLAYORDER=
